# xmcd
#
# Track frame offsets:
#	150
#	11402
#	21829
#	35031
#	44708
#	56935
#	69612
#	80114
#	91141
#	101868
#	113645
#	125047
#	135624
#	148526
#	160078
#	172605
#	182807
#	192259
#	202611
#	213113
#	221815
#	229767
#	239019
#
# Disc length: 3348 seconds
#
# Revision: 1
# Processed by: cddbd v1.5PL3 Copyright (c) Steve Scherf et al.
# Submitted via: audiograbber 1.83.01
#
DISCID=4e0d1217
DTITLE=Johnny Cash - Johnny Cash II
DYEAR=1900
DGENRE=
TTITLE0=Cry Cry Cry
TTITLE1=Hey Porter
TTITLE2=Folsom Prison Blues
TTITLE3=Luther Played The Boogie
TTITLE4=So Doggone Lonesome
TTITLE5=I Walk The Line
TTITLE6=Get Rhythm
TTITLE7=Train Of Love
TTITLE8=There You Go
TTITLE9=Big River
TTITLE10=I Love You Because
TTITLE11=Straight A´s In Love
TTITLE12=Next In LineTrack 13
TTITLE13=Don´t Make Me Go
TTITLE14=Home Of The Blues
TTITLE15=Rock Island Line
TTITLE16=Wreck Of The Old´97
TTITLE17=Ballad Of A Teenage Queen
TTITLE18=Goodbye Little Darling
TTITLE19=Guess Things Happen That Way
TTITLE20=Come In Stranger
TTITLE21=Blue Train
TTITLE22=Your´re The Nearest Thing To Heaven
EXTD=
EXTT0=
EXTT1=
EXTT2=
EXTT3=
EXTT4=
EXTT5=
EXTT6=
EXTT7=
EXTT8=
EXTT9=
EXTT10=
EXTT11=
EXTT12=
EXTT13=
EXTT14=
EXTT15=
EXTT16=
EXTT17=
EXTT18=
EXTT19=
EXTT20=
EXTT21=
EXTT22=
PLAYORDER=
